{"title":"Afrojack vs. Thirty Seconds To Mars - Do Or Die [Remix] 1080p [S","uid":10901116,"size":123479629,"categoryP":"video","categoryS":"music_videos","magnet":"?xt=urn:btih:96f7b02f1c388741014da7c1ea89502901a8d870&amp;dn=Afrojack+vs.+Thirty+Seconds+To+Mars+-+Do+Or+Die+%5BRemix%5D+1080p+%5BS&amp;tr=udp%3A%2F%2Ftracker.openbittorrent.com%3A80&amp;tr=udp%3A%2F%2Fopen.demonii.com%3A1337&amp;tr=udp%3A%2F%2Ftracker.coppersurfer.tk%3A6969&amp;tr=udp%3A%2F%2Fexodus.desync.com%3A6969","seeders":2,"leechers":0,"uploader":"Sbyky","files":1,"time":1409186044,"description":"\n\nGeneral\nComplete name                            : Afrojack vs. Thirty Seconds To Mars - Do Or Die [Remix] 1080p [Sbyky].MP4\nFormat                                   : MPEG-4\nFormat profile                           : Base Media\nCodec ID                                 : isom\nFile size                                : 118 MiB\nDuration                                 : 3mn 59s\nOverall bit rate mode                    : Variable\nOverall bit rate                         : 4 117 Kbps\nEncoded date                             : UTC 2014-03-23 16:08:43\nTagged date                              : UTC 2014-03-23 16:08:43\n\nVideo\nID                                       : 1\nFormat                                   : AVC\nFormat/Info                              : Advanced Video Codec\nFormat profile                           : &lt;a class=&quot;__cf_email__&quot; href=&quot;/cdn-cgi/l/email-protection&quot; data-cfemail=&quot;d49cbdb3bc9498e0fae4&quot;&gt;[email&amp;#160;protected]&lt;/a&gt;&lt;script cf-hash='f9e31' type=&quot;text/javascript&quot;&gt;\n/* &lt;![CDATA[ */!function(){try{var t=&quot;currentScript&quot;in document?document.currentScript:function(){for(var t=document.getElementsByTagName(&quot;script&quot;),e=t.length;e--;)if(t[e].getAttribute(&quot;cf-hash&quot;))return t[e]}();if(t&amp;&amp;t.previousSibling){var e,r,n,i,c=t.previousSibling,a=c.getAttribute(&quot;data-cfemail&quot;);if(a){for(e=&quot;&quot;,r=parseInt(a.substr(0,2),16),n=2;a.length-n;n+=2)i=parseInt(a.substr(n,2),16)^r,e+=String.fromCharCode(i);e=document.createTextNode(e),c.parentNode.replaceChild(e,c)}}}catch(u){}}();/* ]]&gt; */&lt;/script&gt;\nFormat settings, CABAC                   : Yes\nFormat settings, ReFrames                : 2 frames\nCodec ID                                 : avc1\nCodec ID/Info                            : Advanced Video Coding\nDuration                                 : 3mn 59s\nBit rate                                 : 3 990 Kbps\nWidth                                    : 1 920 pixels\nHeight                                   : 1 080 pixels\nDisplay aspect ratio                     : 16:9\nFrame rate mode                          : Constant\nFrame rate                               : 25.000 fps\nColor space                              : YUV\nChroma subsampling                       : 4:2:0\nBit depth                                : 8 bits\nScan type                                : Progressive\nBits/(Pixel*Frame)                       : 0.077\nStream size                              : 114 MiB (97%)\nEncoded date                             : UTC 2014-03-23 16:08:43\nTagged date                              : UTC 2014-03-23 16:08:43\n\nAudio\nID                                       : 2\nFormat                                   : AAC\nFormat/Info                              : Advanced Audio Codec\nFormat profile                           : LC\nCodec ID                                 : 40\nDuration                                 : 3mn 59s\nBit rate mode                            : Variable\nBit rate                                 : 126 Kbps\nChannel(s)                               : 2 channels\nChannel positions                        : Front: L R\nSampling rate                            : 44.1 KHz\nCompression mode                         : Lossy\nStream size                              : 3.59 MiB (3%)\nEncoded date                             : UTC 2014-03-23 16:07:28\nTagged date                              : UTC 2014-03-23 16:07:28\n\nShared By Sbyky\n","torrent":{"xt":"urn:btih:96f7b02f1c388741014da7c1ea89502901a8d870","amp;dn":"Afrojack+vs.+Thirty+Seconds+To+Mars+-+Do+Or+Die+%5BRemix%5D+1080p+%5BS","amp;tr":["udp%3A%2F%2Ftracker.openbittorrent.com%3A80","udp%3A%2F%2Fopen.demonii.com%3A1337","udp%3A%2F%2Ftracker.coppersurfer.tk%3A6969","udp%3A%2F%2Fexodus.desync.com%3A6969"],"infoHash":"96f7b02f1c388741014da7c1ea89502901a8d870","infoHashBuffer":{"type":"Buffer","data":[150,247,176,47,28,56,135,65,1,77,167,193,234,137,80,41,1,168,216,112]},"announce":[],"urlList":[]}}